ffmpeg started on 2016-12-12 at 08:33:00
Report written to "Output/theora/results/ffmpeg/Told_town_cross_2160p5010000k.log"
Command line:
Tools/ffmpeg/ffmpeg -i Output/theora/encoded/old_town_cross_2160p5010000k.mkv -c:v rawvideo -pix_fmt yuv420p Output/theora/transcoded/old_town_cross_2160p5010000k.yuv
ffmpeg version N-82227-gdb23fde Copyright (c) 2000-2016 the FFmpeg developers
  built with gcc 5.4.0 (Ubuntu 5.4.0-6ubuntu1~16.04.2) 20160609
  configuration: --prefix=/home/jaroslav/ffmpeg_build --pkg-config-flags=--static --extra-cflags=-I/home/jaroslav/ffmpeg_build/include --extra-ldflags=-L/home/jaroslav/ffmpeg_build/lib --bindir=/home/jaroslav/bin --enable-gpl --enable-libass --enable-libfdk-aac --enable-libfreetype --enable-libmp3lame --enable-libopus --enable-libtheora --enable-libvorbis --enable-libvpx --enable-libx264 --enable-libx265 --enable-nvenc --enable-libmfx --enable-libxvid --enable-libgsm --enable-libopencore-amrnb --enable-version3 --enable-nonfree
  libavutil      55. 35.100 / 55. 35.100
  libavcodec     57. 66.101 / 57. 66.101
  libavformat    57. 57.100 / 57. 57.100
  libavdevice    57.  2.100 / 57.  2.100
  libavfilter     6. 66.100 /  6. 66.100
  libswscale      4.  3.100 /  4.  3.100
  libswresample   2.  4.100 /  2.  4.100
  libpostproc    54.  2.100 / 54.  2.100
Input #0, matroska,webm, from 'Output/theora/encoded/old_town_cross_2160p5010000k.mkv':
  Metadata:
    ENCODER         : Lavf57.57.100
  Duration: 00:00:10.00, start: 0.000000, bitrate: 10040 kb/s
    Stream #0:0: Video: theora, yuv420p(progressive), 3840x2160 [SAR 1:1 DAR 16:9], 50 fps, 50 tbr, 1k tbn, 50 tbc (default)
    Metadata:
      ENCODER         : Lavc57.66.101 libtheora
      DURATION        : 00:00:10.000000000
Output #0, rawvideo, to 'Output/theora/transcoded/old_town_cross_2160p5010000k.yuv':
  Metadata:
    encoder         : Lavf57.57.100
    Stream #0:0: Video: rawvideo (I420 / 0x30323449), yuv420p, 3840x2160 [SAR 1:1 DAR 16:9], q=2-31, 200 kb/s, 50 fps, 50 tbn, 50 tbc (default)
    Metadata:
      DURATION        : 00:00:10.000000000
      encoder         : Lavc57.66.101 rawvideo
Stream mapping:
  Stream #0:0 -> #0:0 (theora (native) -> rawvideo (native))
Press [q] to stop, [?] for help
frame=   17 fps=0.0 q=-0.0 size=  206550kB time=00:00:00.34 bitrate=4976640.0kbits/s speed=0.667x    frame=   34 fps= 33 q=-0.0 size=  413100kB time=00:00:00.68 bitrate=4976640.0kbits/s speed=0.662x    frame=   51 fps= 33 q=-0.0 size=  619650kB time=00:00:01.02 bitrate=4976640.0kbits/s speed=0.663x    frame=   68 fps= 33 q=-0.0 size=  826200kB time=00:00:01.36 bitrate=4976640.0kbits/s speed=0.664x    frame=   85 fps= 33 q=-0.0 size= 1032750kB time=00:00:01.70 bitrate=4976640.0kbits/s speed=0.665x    frame=  102 fps= 33 q=-0.0 size= 1239300kB time=00:00:02.04 bitrate=4976640.0kbits/s speed=0.665x    frame=  119 fps= 33 q=-0.0 size= 1445850kB time=00:00:02.38 bitrate=4976640.0kbits/s speed=0.665x    frame=  136 fps= 33 q=-0.0 size= 1652400kB time=00:00:02.72 bitrate=4976640.0kbits/s speed=0.666x    frame=  153 fps= 33 q=-0.0 size= 1858950kB time=00:00:03.06 bitrate=4976640.0kbits/s speed=0.666x    frame=  170 fps= 33 q=-0.0 size= 2065500kB time=00:00:03.40 bitrate=4976640.0kbits/s speed=0.666x    frame=  187 fps= 33 q=-0.0 size= 2272050kB time=00:00:03.74 bitrate=4976640.0kbits/s speed=0.666x    frame=  204 fps= 33 q=-0.0 size= 2478600kB time=00:00:04.08 bitrate=4976640.0kbits/s speed=0.665x    frame=  221 fps= 33 q=-0.0 size= 2685150kB time=00:00:04.42 bitrate=4976640.0kbits/s speed=0.664x    frame=  238 fps= 33 q=-0.0 size= 2891700kB time=00:00:04.76 bitrate=4976640.0kbits/s speed=0.664x    frame=  255 fps= 33 q=-0.0 size= 3098250kB time=00:00:05.10 bitrate=4976640.0kbits/s speed=0.663x    frame=  271 fps= 33 q=-0.0 size= 3292650kB time=00:00:05.42 bitrate=4976640.0kbits/s speed=0.661x    frame=  282 fps= 32 q=-0.0 size= 3426300kB time=00:00:05.64 bitrate=4976640.0kbits/s speed=0.648x    frame=  299 fps= 32 q=-0.0 size= 3632850kB time=00:00:05.98 bitrate=4976640.0kbits/s speed=0.648x    frame=  315 fps= 32 q=-0.0 size= 3827250kB time=00:00:06.30 bitrate=4976640.0kbits/s speed=0.646x    frame=  330 fps= 32 q=-0.0 size= 4009500kB time=00:00:06.60 bitrate=4976640.0kbits/s speed=0.644x    frame=  345 fps= 32 q=-0.0 size= 4191750kB time=00:00:06.90 bitrate=4976640.0kbits/s speed=0.641x    frame=  361 fps= 32 q=-0.0 size= 4386150kB time=00:00:07.22 bitrate=4976640.0kbits/s speed=0.639x    frame=  375 fps= 32 q=-0.0 size= 4556250kB time=00:00:07.50 bitrate=4976640.0kbits/s speed=0.634x    frame=  391 fps= 32 q=-0.0 size= 4750650kB time=00:00:07.82 bitrate=4976640.0kbits/s speed=0.633x    frame=  405 fps= 32 q=-0.0 size= 4920750kB time=00:00:08.10 bitrate=4976640.0kbits/s speed=0.63x    frame=  417 fps= 31 q=-0.0 size= 5066550kB time=00:00:08.34 bitrate=4976640.0kbits/s speed=0.62x    frame=  429 fps= 31 q=-0.0 size= 5212350kB time=00:00:08.58 bitrate=4976640.0kbits/s speed=0.615x    frame=  441 fps= 30 q=-0.0 size= 5358150kB time=00:00:08.82 bitrate=4976640.0kbits/s speed=0.609x    frame=  456 fps= 30 q=-0.0 size= 5540400kB time=00:00:09.12 bitrate=4976640.0kbits/s speed=0.603x    frame=  460 fps= 29 q=-0.0 size= 5589000kB time=00:00:09.20 bitrate=4976640.0kbits/s speed=0.588x    frame=  475 fps= 29 q=-0.0 size= 5771250kB time=00:00:09.50 bitrate=4976640.0kbits/s speed=0.588x    frame=  489 fps= 29 q=-0.0 size= 5941350kB time=00:00:09.78 bitrate=4976640.0kbits/s speed=0.583x    frame=  500 fps= 29 q=-0.0 Lsize= 6075000kB time=00:00:10.00 bitrate=4976640.0kbits/s speed=0.581x    
video:6075000kB audio:0kB subtitle:0kB other streams:0kB global headers:0kB muxing overhead: 0.000000%
